<svg width="36" height="33" viewBox="0 0 36 33" fill="none" xmlns="http://www.w3.org/2000/svg">
<path d="M0.683594 11.0822L16.0715 31.0947L9.09169 11.0822H0.683594Z" fill="url(#paint0_linear)"/>
<path d="M10.4634 11.0822L17.8998 32.4041L25.4823 11.0822H10.4634Z" fill="url(#paint1_linear)"/>
<path d="M19.5566 31.6115L35.3412 11.0822H26.8565L19.5566 31.6115Z" fill="url(#paint2_linear)"/>
<path d="M29.32 0.288208H19.3657L26.191 9.0886L29.32 0.288208Z" fill="url(#paint3_linear)"/>
<path d="M25.0309 9.73298L18.0124 0.684326L10.9946 9.73298H25.0309Z" fill="url(#paint4_linear)"/>
<path d="M16.6596 0.288208H6.69824L9.78857 9.14796L16.6596 0.288208Z" fill="url(#paint5_linear)"/>
<path d="M5.62523 1.14221L0.5 9.7328H8.6209L5.62523 1.14221Z" fill="url(#paint6_linear)"/>
<path d="M35.5251 9.7329L30.3947 1.13354L27.3359 9.7329H35.5251Z" fill="url(#paint7_linear)"/>
<defs>
<linearGradient id="paint0_linear" x1="9.14695" y1="7.93203" x2="10.6143" y2="43.359" gradientUnits="userSpaceOnUse">
<stop stop-color="#FD749B"/>
<stop offset="1" stop-color="#281AC8"/>
</linearGradient>
<linearGradient id="paint1_linear" x1="18.7238" y1="7.72592" x2="20.4298" y2="45.4585" gradientUnits="userSpaceOnUse">
<stop stop-color="#FD749B"/>
<stop offset="1" stop-color="#281AC8"/>
</linearGradient>
<linearGradient id="paint2_linear" x1="28.2382" y1="7.85069" x2="29.7435" y2="44.1924" gradientUnits="userSpaceOnUse">
<stop stop-color="#FD749B"/>
<stop offset="1" stop-color="#281AC8"/>
</linearGradient>
<linearGradient id="paint3_linear" x1="24.8405" y1="-1.09704" x2="25.2796" y2="14.4961" gradientUnits="userSpaceOnUse">
<stop stop-color="#FD749B"/>
<stop offset="1" stop-color="#281AC8"/>
</linearGradient>
<linearGradient id="paint4_linear" x1="18.7146" y1="-0.739998" x2="19.0439" y2="15.299" gradientUnits="userSpaceOnUse">
<stop stop-color="#FD749B"/>
<stop offset="1" stop-color="#281AC8"/>
</linearGradient>
<linearGradient id="paint5_linear" x1="12.177" y1="-1.10638" x2="12.6216" y2="14.5918" gradientUnits="userSpaceOnUse">
<stop stop-color="#FD749B"/>
<stop offset="1" stop-color="#281AC8"/>
</linearGradient>
<linearGradient id="paint6_linear" x1="4.96649" y1="-0.21001" x2="5.47913" y2="15.0062" gradientUnits="userSpaceOnUse">
<stop stop-color="#FD749B"/>
<stop offset="1" stop-color="#281AC8"/>
</linearGradient>
<linearGradient id="paint7_linear" x1="31.84" y1="-0.220057" x2="32.3494" y2="15.0119" gradientUnits="userSpaceOnUse">
<stop stop-color="#FD749B"/>
<stop offset="1" stop-color="#281AC8"/>
</linearGradient>
</defs>
</svg>
