<svg width="33" height="33" viewBox="0 0 33 33" fill="none" xmlns="http://www.w3.org/2000/svg">
<g clip-path="url(#clip0)">
<path d="M16.7289 7.18445C13.6328 7.18445 11.1138 9.70323 11.1138 12.7994C11.1138 15.8957 13.6328 18.4145 16.7289 18.4145C19.8251 18.4145 22.3438 15.8957 22.3438 12.7994C22.3438 9.70323 19.8251 7.18445 16.7289 7.18445Z" fill="url(#paint0_linear)"/>
<path d="M28.4253 16.5997L26.7225 12.7995L28.4253 8.99937L24.8142 6.9257L23.9581 2.8504L19.8175 3.2955L16.7296 0.501831L13.6415 3.2955L9.50115 2.85064L8.64503 6.92594L5.03369 8.99937L6.73649 12.7995L5.03369 16.5997L8.64503 18.6734L9.10875 20.8812L5.25395 29.0722L9.27702 29.1249L11.8819 32.1913L15.6709 24.1396L16.7296 25.0972L17.7881 24.1396L21.5774 32.1913L24.182 29.1249L28.2051 29.0722L24.3503 20.8812L24.8142 18.6734L28.4253 16.5997ZM16.7296 20.2712C12.6096 20.2712 9.25792 16.9196 9.25792 12.7995C9.25792 8.67951 12.6096 5.32783 16.7296 5.32783C20.8494 5.32783 24.2013 8.67975 24.2013 12.7995C24.2013 16.9196 20.8494 20.2712 16.7296 20.2712Z" fill="url(#paint1_linear)"/>
</g>
<defs>
<linearGradient id="paint0_linear" x1="17.2903" y1="5.41675" x2="17.9239" y2="25.3106" gradientUnits="userSpaceOnUse">
<stop stop-color="#FD749B"/>
<stop offset="1" stop-color="#281AC8"/>
</linearGradient>
<linearGradient id="paint1_linear" x1="17.8991" y1="-4.48633" x2="20.3191" y2="51.6034" gradientUnits="userSpaceOnUse">
<stop stop-color="#FD749B"/>
<stop offset="1" stop-color="#281AC8"/>
</linearGradient>
<clipPath id="clip0">
<rect width="31.6895" height="31.6895" fill="white" transform="translate(0.88623 0.501831)"/>
</clipPath>
</defs>
</svg>
