<svg width="33" height="33" viewBox="0 0 33 33" fill="none" xmlns="http://www.w3.org/2000/svg">
<g clip-path="url(#clip0)">
<path d="M19.9714 22.2559H13.3091C7.8344 22.2559 3.37354 26.7167 3.37354 32.1914H29.936C29.907 26.7457 25.4461 22.2559 19.9714 22.2559Z" fill="url(#paint0_linear)"/>
<path d="M17.828 17.7078C18.3494 17.7078 18.8419 17.8816 19.2184 18.2003H21.6227C22.8103 16.9547 23.5345 15.3036 23.5345 13.4497C23.5345 9.62613 20.435 6.55566 16.6404 6.55566C12.8458 6.55566 9.74634 9.62613 9.74634 13.4497C9.74634 16.0278 11.1657 18.2872 13.2803 19.4748C13.512 18.461 14.41 17.7078 15.4528 17.7078H17.828Z" fill="url(#paint1_linear)"/>
<path d="M6.44422 14.0293C6.53112 14.7534 6.87872 15.4197 7.37115 15.9121C7.74772 16.2887 8.24015 16.5783 8.79052 16.7521C8.76155 16.6363 8.76155 16.5204 8.76155 16.4335V10.814C8.76155 10.6981 8.76155 10.5822 8.79052 10.4664C8.24015 10.6112 7.77669 10.9009 7.37115 11.3064C7.34219 11.3354 7.28425 11.3933 7.25529 11.4223V11.1905C7.25529 10.6402 7.31322 10.0898 7.40012 9.5684C7.48702 9.01803 7.63185 8.49663 7.83462 8.0042C8.00842 7.4828 8.24015 6.99036 8.52982 6.5269C8.79052 6.06343 9.10915 5.59996 9.45675 5.19443C9.48572 5.16546 9.51469 5.10753 9.51469 5.07856C9.77539 5.10753 10.0361 5.02063 10.2099 4.84683C11.9769 3.07986 14.2942 2.21086 16.5826 2.21086C18.8709 2.21086 21.2172 3.07986 22.9552 4.84683C23.158 5.0496 23.4187 5.10753 23.6504 5.07856C23.6794 5.10753 23.6794 5.16546 23.7084 5.19443C24.056 5.59996 24.3746 6.06343 24.6353 6.5269C24.896 6.99036 25.1277 7.4828 25.3305 8.0042C25.5043 8.5256 25.6491 9.047 25.765 9.59736C25.8519 10.1188 25.9098 10.6691 25.9098 11.2195V11.4512C25.8809 11.3933 25.8229 11.3643 25.794 11.3354C25.4174 10.9588 24.925 10.6691 24.3746 10.4953C24.4036 10.6112 24.4036 10.7271 24.4036 10.8429V16.4335C24.4036 16.5494 24.4036 16.6652 24.3746 16.7521C24.5194 16.7232 24.6643 16.6652 24.8091 16.6073V18.4322C24.8091 18.635 24.7801 18.8377 24.7512 18.9826C24.7222 19.1274 24.6643 19.2143 24.6063 19.3012C24.5484 19.3591 24.4615 19.4171 24.3746 19.446C24.2587 19.475 24.1429 19.504 23.998 19.504H23.9691H18.6392C18.4654 19.2143 18.1757 19.0115 17.7992 19.0115H15.4239C14.9025 19.0115 14.497 19.446 14.497 19.9385C14.5259 20.4599 14.9315 20.8654 15.4529 20.8654H17.8281C18.1757 20.8654 18.4944 20.6626 18.6682 20.373H24.056H24.2587C24.4615 20.373 24.6353 20.315 24.8091 20.2571C25.0408 20.1702 25.2146 20.0543 25.3884 19.8805C25.5333 19.7067 25.6491 19.504 25.736 19.2433C25.794 19.0115 25.8519 18.7219 25.8519 18.4032V16.0859V15.999C25.8809 15.97 25.9098 15.9411 25.9388 15.9121C26.4312 15.4197 26.7788 14.7534 26.8657 14.0293C26.8947 14.0003 26.9237 14.0003 26.9237 13.9713C27.0106 13.8844 27.0685 13.7396 27.0685 13.6237V11.2195C27.0685 10.6112 27.0106 10.0029 26.9237 9.42356C26.7499 8.81526 26.605 8.23593 26.4023 7.6566C26.1995 7.07726 25.9388 6.5269 25.6202 6.0055C25.3305 5.4841 24.9829 4.99166 24.5774 4.5282C24.5484 4.47026 24.4905 4.4413 24.4325 4.41233C24.4905 4.15163 24.4036 3.833 24.2008 3.63023C22.1152 1.54463 19.3923 0.501831 16.6405 0.501831C13.8887 0.501831 11.1658 1.54463 9.05122 3.63023C8.84845 3.833 8.76155 4.15163 8.81949 4.41233C8.76155 4.4413 8.73259 4.47026 8.67465 4.5282C8.26912 4.99166 7.92152 5.4841 7.63185 6.0055C7.34219 6.5269 7.08149 7.07726 6.84976 7.6566C6.64699 8.23593 6.47319 8.81526 6.38629 9.42356C6.27042 10.0029 6.24146 10.6112 6.24146 11.2195V13.6237C6.24146 13.7686 6.29939 13.8844 6.38629 13.9713C6.41526 14.0003 6.44422 14.0003 6.44422 14.0293Z" fill="url(#paint2_linear)"/>
</g>
<defs>
<linearGradient id="paint0_linear" x1="17.9829" y1="20.6919" x2="18.1927" y2="38.3079" gradientUnits="userSpaceOnUse">
<stop stop-color="#FD749B"/>
<stop offset="1" stop-color="#281AC8"/>
</linearGradient>
<linearGradient id="paint1_linear" x1="17.3298" y1="4.5221" x2="18.0128" y2="27.4109" gradientUnits="userSpaceOnUse">
<stop stop-color="#FD749B"/>
<stop offset="1" stop-color="#281AC8"/>
</linearGradient>
<linearGradient id="paint2_linear" x1="17.6963" y1="-2.70354" x2="18.8197" y2="33.3717" gradientUnits="userSpaceOnUse">
<stop stop-color="#FD749B"/>
<stop offset="1" stop-color="#281AC8"/>
</linearGradient>
<clipPath id="clip0">
<rect width="31.6895" height="31.6895" fill="white" transform="translate(0.810547 0.501831)"/>
</clipPath>
</defs>
</svg>
