<svg width="59" height="59" fill="none" xmlns="http://www.w3.org/2000/svg">
  <g clip-path="url(#clip0)">
    <path d="M29.05.36a29 29 0 10-.05 58 29 29 0 00.05-58zM29 53.53a24.17 24.17 0 110-48.35 24.17 24.17 0 010 48.35z" fill="url(#paint0_linear)"/>
    <path d="M36.84 27.94a5.3 5.3 0 002.62-5.47c-.44-3.4-4.48-4.67-7.67-4.94v-5.1h-3.14v5.05h-2.11v-5.05h-3.15v5.05h-6.33v3.26h2.36c1.06 0 1.57.31 1.57 1.17v13.98c0 1.17-.58 1.53-1.21 1.53h-2.4v3.32h6.1v5.16h3.17v-5.16h2.1v5.16h3.08v-5.16h.68c6.46 0 8.62-3.17 8.62-7.48a5.59 5.59 0 00-4.3-5.32zm-10.3-7h2.24c1.57 0 4.67.27 4.67 2.83a3.17 3.17 0 01-2.76 3.34h-4.15v-6.17zM30 37.1v-.02h-3.47v-6.73h4.04c.94 0 4.48.31 4.48 2.82 0 2.52-1.68 3.93-5.05 3.93z" fill="url(#paint1_linear)"/>
  </g>
  <defs>
    <linearGradient id="paint0_linear" x1="31.93" y1="-8.77" x2="35.2" y2="93.97" gradientUnits="userSpaceOnUse">
      <stop stop-color="#FD749B"/>
      <stop offset="1" stop-color="#281AC8"/>
    </linearGradient>
    <linearGradient id="paint1_linear" x1="30.3" y1="7.17" x2="32.92" y2="66.4" gradientUnits="userSpaceOnUse">
      <stop stop-color="#FD749B"/>
      <stop offset="1" stop-color="#281AC8"/>
    </linearGradient>
    <clipPath id="clip0">
      <path fill="#fff" transform="translate(.03 .36)" d="M0 0h58v58H0z"/>
    </clipPath>
  </defs>
</svg>
