<svg width="27" height="28" fill="none" xmlns="http://www.w3.org/2000/svg">
  <g clip-path="url(#clip0)">
    <path d="M13.51 0C6.05 0 .01 6.26 0 13.99c0 7.73 6.03 14 13.49 14.01 7.45 0 13.5-6.27 13.51-14 0-7.73-6.04-14-13.49-14zm-.02 25.67C7.27 25.67 2.24 20.45 2.24 14S7.27 2.33 13.49 2.33c6.21 0 11.25 5.23 11.25 11.67 0 6.45-5.04 11.67-11.25 11.67z" fill="url(#paint0_linear)"/>
    <path d="M17.14 13.32c.9-.53 1.39-1.59 1.22-2.65-.21-1.63-2.1-2.25-3.57-2.38V5.83h-1.47v2.44h-.98V5.83h-1.46v2.44H7.93v1.57h1.1c.49 0 .73.15.73.56v6.75c0 .57-.27.74-.57.74H8.08v1.6h2.84V22h1.47v-2.5h.98V22h1.44v-2.5h.3c3.02 0 4.02-1.52 4.02-3.6a2.68 2.68 0 00-2-2.57zm-4.8-3.38h1.04c.74 0 2.18.13 2.18 1.36.05.8-.51 1.51-1.29 1.62h-1.93V9.94zm1.62 7.8v-.01h-1.62v-3.25h1.88c.44 0 2.1.15 2.1 1.36 0 1.22-.8 1.9-2.36 1.9z" fill="url(#paint1_linear)"/>
  </g>
  <defs>
    <linearGradient id="paint0_linear" x1="14.85" y1="-4.41" x2="16.49" y2="45.19" gradientUnits="userSpaceOnUse">
      <stop stop-color="#FD749B"/>
      <stop offset="1" stop-color="#281AC8"/>
    </linearGradient>
    <linearGradient id="paint1_linear" x1="14.09" y1="3.29" x2="15.4" y2="31.88" gradientUnits="userSpaceOnUse">
      <stop stop-color="#FD749B"/>
      <stop offset="1" stop-color="#281AC8"/>
    </linearGradient>
    <clipPath id="clip0">
      <path fill="#fff" d="M0 0h27v28H0z"/>
    </clipPath>
  </defs>
</svg>
