<svg xmlns="http://www.w3.org/2000/svg" width="24" height="26">
  <path d="M16.5 14.5c0 .83-.56 1.5-1.25 1.5S14 15.33 14 14.5s.56-1.5 1.25-1.5 1.25.67 1.25 1.5zM8.75 13c-.69 0-1.25.67-1.25 1.5S8.06 16 8.75 16 10 15.33 10 14.5 9.44 13 8.75 13zM12 21.35c2.23 0 3-2.35 3-2.35H9s.85 2.35 3 2.35zm12-6.04c0 1.77-.98 4-3.14 4.9C18.84 23.46 16.04 26 12 26c-3.83 0-6.84-2.55-8.86-5.78A5.4 5.4 0 010 15.32c0-2.06.86-3.8 2.71-3.97.85-9.1 8.57-8.4 9.84-10.85.32.56.47 1.57-.02 2.29.87-.05 2.34-1.3 2.75-2.56.76.37 1.04 1.58.66 2.36.54-.1 2.19-1.15 3.06-2.59.69 1.56.03 3.56-.7 4.77h-.02c1.8 1.7 2.78 4.13 3.01 6.58 1.86.16 2.71 1.91 2.71 3.96zm-2.58-1.86a.76.76 0 00-.67-.06 1 1 0 01-1.37-.66v.02c-.34-2.6-1.13-4.85-2.62-5.57-6.42 7.01-10.82-.9-11.94 3.53-.1.59-.16 1.18-.16 1.77a1 1 0 01-1.4.91.76.76 0 00-.68.06c-1 .65-.9 4.18 1.55 5a1 1 0 01.54.44C7.12 22.94 9.89 24 12 24c3.29 0 5.62-2.27 7.33-5.11a1 1 0 01.54-.43c2.44-.83 2.55-4.36 1.55-5.01z"/>
</svg>
