<svg width="15" height="11" fill="none" xmlns="http://www.w3.org/2000/svg">
  <path d="M.26 3.84h11.02v1.54c0 .07.02.13.08.18.05.05.1.08.18.08.07 0 .13-.02.18-.07L14.28 3a.25.25 0 00.07-.18.25.25 0 00-.07-.18L11.73.08a.3.3 0 00-.2-.08.25.25 0 00-.18.07.25.25 0 00-.07.19v1.53H.26a.25.25 0 00-.18.08.25.25 0 00-.08.18V3.6c0 .07.03.13.08.18.05.05.1.07.18.07z" fill="url(#paint0_linear)"/>
  <path d="M14.1 6.92H3.08V5.38A.25.25 0 003 5.2a.25.25 0 00-.18-.07.25.25 0 00-.18.07L.07 7.76a.25.25 0 00-.07.19c0 .07.02.12.07.17l2.56 2.57a.3.3 0 00.19.08c.07 0 .13-.03.18-.08a.25.25 0 00.08-.18V8.97H14.1c.07 0 .13-.02.18-.07a.25.25 0 00.07-.18V7.18a.25.25 0 00-.07-.18.25.25 0 00-.18-.08z" fill="url(#paint1_linear)"/>
  <defs>
    <linearGradient id="paint0_linear" x1="7.9" y1="-.89" x2="8.02" y2="9.11" gradientUnits="userSpaceOnUse">
      <stop stop-color="#FD749B"/>
      <stop offset="1" stop-color="#281AC8"/>
    </linearGradient>
    <linearGradient id="paint1_linear" x1="7.89" y1="4.24" x2="8.02" y2="14.24" gradientUnits="userSpaceOnUse">
      <stop stop-color="#FD749B"/>
      <stop offset="1" stop-color="#281AC8"/>
    </linearGradient>
  </defs>
</svg>
