<svg width="12" height="13" fill="none" xmlns="http://www.w3.org/2000/svg">
  <path opacity=".8" fill-rule="evenodd" clip-rule="evenodd" d="M10.57 0H1.43C.63 0 0 .69 0 1.54v9.92C0 12.3.64 13 1.43 13h9.14c.8 0 1.43-.69 1.43-1.54V1.54C12 .7 11.36 0 10.57 0zM8.63 2.03c0-.22.16-.4.37-.4h1.12c.21 0 .38.18.38.4v1.22c0 .22-.17.4-.38.4H9c-.2 0-.37-.18-.37-.4V2.03zM6 4.03c1.28 0 2.31 1.1 2.31 2.49C8.32 7.89 7.3 9 6.02 9 4.73 9 3.7 7.89 3.7 6.5c0-1.37 1.03-2.49 2.3-2.49zm4.87 7.34c0 .23-.17.41-.38.41h-9c-.2 0-.38-.18-.38-.4v-6.1h1.5c-.19.3-.26.87-.26 1.24 0 2.17 1.64 3.94 3.65 3.94 2.02 0 3.65-1.77 3.65-3.94 0-.37-.04-.93-.28-1.24h1.5v6.1z" fill="#fff"/>
</svg>
