<svg width="145" height="33" fill="none" xmlns="http://www.w3.org/2000/svg">
  <mask id="a" maskUnits="userSpaceOnUse" x="46.57" y="11.59" width="98" height="18" fill="#000">
    <path fill="#fff" d="M46.57 11.59h98v18h-98z"/>
    <path d="M47.57 21.1c0-1.41.31-2.67.95-3.78.64-1.13 1.5-2.01 2.6-2.65a7.28 7.28 0 013.67-.95c1.58 0 2.96.38 4.14 1.14a6.51 6.51 0 012.57 3.22h-2.26a4.5 4.5 0 00-1.75-2 4.99 4.99 0 00-2.7-.7 5.3 5.3 0 00-2.72.7 4.9 4.9 0 00-1.89 2 6.3 6.3 0 00-.68 3.01c0 1.15.23 2.15.68 3.02a4.94 4.94 0 001.9 1.98c.8.47 1.7.7 2.71.7a4.5 4.5 0 004.44-2.68h2.27a6.52 6.52 0 01-2.57 3.2 7.58 7.58 0 01-4.14 1.11 6.96 6.96 0 01-6.27-3.55 7.48 7.48 0 01-.95-3.78zM69.28 28.48a5.91 5.91 0 01-2.9-.72 5.27 5.27 0 01-2.04-2.04 6.4 6.4 0 01-.73-3.1c0-1.15.25-2.17.75-3.05.5-.9 1.2-1.58 2.07-2.05a5.95 5.95 0 012.93-.72c1.08 0 2.06.24 2.93.72a5.09 5.09 0 012.06 2.03 6 6 0 01.76 3.07 6 6 0 01-.78 3.1 5.33 5.33 0 01-2.1 2.04c-.89.48-1.87.72-2.95.72zm0-1.65c.68 0 1.31-.16 1.9-.47.6-.32 1.08-.8 1.44-1.43.38-.63.56-1.4.56-2.3 0-.92-.18-1.69-.54-2.32a3.46 3.46 0 00-1.4-1.4 3.9 3.9 0 00-1.9-.48c-.7 0-1.33.16-1.91.48-.57.3-1.02.77-1.37 1.4-.35.63-.52 1.4-.52 2.31 0 .92.17 1.7.5 2.33a3.5 3.5 0 003.24 1.88zM78.58 15.15c-.36 0-.67-.12-.92-.37a1.23 1.23 0 01-.37-.91c0-.36.12-.66.37-.9.25-.26.56-.38.92-.38.34 0 .63.12.87.37.25.25.37.55.37.9 0 .37-.12.67-.37.92-.24.25-.53.37-.87.37zm.9 1.84v11.3H77.6V17h1.89zM88.25 16.78c1.39 0 2.51.42 3.37 1.26.86.82 1.29 2.02 1.29 3.6v6.66h-1.87v-6.4c0-1.13-.29-1.99-.85-2.58-.57-.6-1.35-.9-2.33-.9-1 0-1.8.3-2.39.92-.58.62-.87 1.52-.87 2.7v6.26h-1.89V16.99h1.89v1.6c.37-.57.88-1.02 1.52-1.34a4.82 4.82 0 012.13-.47zM103.24 20.89a3 3 0 011.44.64c.44.34.78.77 1.03 1.28a3.63 3.63 0 01-.17 3.61 3.9 3.9 0 01-1.63 1.38c-.71.33-1.55.5-2.52.5H96V13.9h5.2c.98 0 1.82.17 2.5.5.7.31 1.22.75 1.57 1.3.34.55.52 1.17.52 1.85 0 .86-.24 1.57-.71 2.13-.46.55-1.07.95-1.83 1.2zm-5.36-.77h3.18c.89 0 1.57-.2 2.06-.62.48-.4.72-.98.72-1.7 0-.74-.24-1.3-.72-1.72-.49-.41-1.19-.62-2.1-.62h-3.14v4.66zm3.35 6.63c.94 0 1.67-.22 2.2-.66.52-.44.79-1.05.79-1.84 0-.8-.28-1.42-.83-1.88-.56-.46-1.3-.7-2.22-.7h-3.29v5.08h3.35zM108.02 22.6c0-1.15.24-2.17.71-3.03a5.1 5.1 0 014.7-2.77c1 0 1.86.21 2.59.64.73.43 1.28.96 1.64 1.61V17h1.91v11.3h-1.9v-2.1a4.5 4.5 0 01-1.7 1.65c-.72.43-1.58.64-2.57.64a5.18 5.18 0 01-4.67-2.82c-.47-.9-.7-1.92-.7-3.06zm9.64.02c0-.85-.17-1.6-.52-2.23a3.57 3.57 0 00-1.41-1.44 3.72 3.72 0 00-1.93-.52c-.7 0-1.35.17-1.93.5a3.6 3.6 0 00-1.4 1.44 4.58 4.58 0 00-.51 2.23c0 .87.17 1.63.52 2.27.34.64.8 1.12 1.39 1.47.58.33 1.22.5 1.93.5a3.7 3.7 0 003.34-1.96c.35-.65.52-1.4.52-2.26zM126.8 28.48c-.88 0-1.66-.14-2.35-.43-.7-.3-1.24-.71-1.64-1.24a3.34 3.34 0 01-.67-1.83h1.95c.06.56.32 1.02.8 1.38a3.1 3.1 0 001.88.54c.72 0 1.3-.16 1.7-.48.42-.32.63-.72.63-1.2 0-.5-.22-.86-.66-1.1a8.94 8.94 0 00-2.06-.71c-.85-.22-1.54-.44-2.08-.66a3.95 3.95 0 01-1.37-1.02 2.7 2.7 0 01-.56-1.77c0-.58.17-1.1.52-1.6.35-.47.84-.85 1.47-1.13a5.23 5.23 0 012.19-.43c1.26 0 2.27.32 3.05.95.77.63 1.19 1.5 1.24 2.6h-1.89a1.93 1.93 0 00-.72-1.42 2.64 2.64 0 00-1.75-.54c-.68 0-1.22.14-1.62.43-.4.3-.6.67-.6 1.14 0 .37.12.68.35.93.25.23.56.42.92.58.37.13.88.3 1.53.47.82.22 1.48.44 2 .66.51.2.95.52 1.3.95.38.43.57.98.59 1.67 0 .62-.17 1.18-.52 1.68s-.84.88-1.48 1.17a5.3 5.3 0 01-2.16.41zM144 22.2c0 .37-.02.75-.06 1.14h-9.1a3.7 3.7 0 001.14 2.63c.7.62 1.56.93 2.56.93.81 0 1.5-.2 2.03-.56.56-.39.94-.9 1.17-1.53h2.03a4.91 4.91 0 01-1.83 2.66 5.58 5.58 0 01-3.4 1.01 5.84 5.84 0 01-2.91-.72 5.17 5.17 0 01-2-2.04 6.4 6.4 0 01-.72-3.1c0-1.17.24-2.2.7-3.07a4.9 4.9 0 011.98-2.03 5.93 5.93 0 012.95-.72c1.08 0 2.03.23 2.86.7a4.79 4.79 0 011.91 1.94c.46.81.69 1.74.69 2.77zm-1.95-.38a3.4 3.4 0 00-.48-1.84 3 3 0 00-1.3-1.18 3.92 3.92 0 00-1.82-.41c-.95 0-1.77.3-2.45.9a3.7 3.7 0 00-1.14 2.53h7.19z"/>
  </mask>
  <path d="M47.57 21.1c0-1.41.31-2.67.95-3.78.64-1.13 1.5-2.01 2.6-2.65a7.28 7.28 0 013.67-.95c1.58 0 2.96.38 4.14 1.14a6.51 6.51 0 012.57 3.22h-2.26a4.5 4.5 0 00-1.75-2 4.99 4.99 0 00-2.7-.7 5.3 5.3 0 00-2.72.7 4.9 4.9 0 00-1.89 2 6.3 6.3 0 00-.68 3.01c0 1.15.23 2.15.68 3.02a4.94 4.94 0 001.9 1.98c.8.47 1.7.7 2.71.7a4.5 4.5 0 004.44-2.68h2.27a6.52 6.52 0 01-2.57 3.2 7.58 7.58 0 01-4.14 1.11 6.96 6.96 0 01-6.27-3.55 7.48 7.48 0 01-.95-3.78zM69.28 28.48a5.91 5.91 0 01-2.9-.72 5.27 5.27 0 01-2.04-2.04 6.4 6.4 0 01-.73-3.1c0-1.15.25-2.17.75-3.05.5-.9 1.2-1.58 2.07-2.05a5.95 5.95 0 012.93-.72c1.08 0 2.06.24 2.93.72a5.09 5.09 0 012.06 2.03 6 6 0 01.76 3.07 6 6 0 01-.78 3.1 5.33 5.33 0 01-2.1 2.04c-.89.48-1.87.72-2.95.72zm0-1.65c.68 0 1.31-.16 1.9-.47.6-.32 1.08-.8 1.44-1.43.38-.63.56-1.4.56-2.3 0-.92-.18-1.69-.54-2.32a3.46 3.46 0 00-1.4-1.4 3.9 3.9 0 00-1.9-.48c-.7 0-1.33.16-1.91.48-.57.3-1.02.77-1.37 1.4-.35.63-.52 1.4-.52 2.31 0 .92.17 1.7.5 2.33a3.5 3.5 0 003.24 1.88zM78.58 15.15c-.36 0-.67-.12-.92-.37a1.23 1.23 0 01-.37-.91c0-.36.12-.66.37-.9.25-.26.56-.38.92-.38.34 0 .63.12.87.37.25.25.37.55.37.9 0 .37-.12.67-.37.92-.24.25-.53.37-.87.37zm.9 1.84v11.3H77.6V17h1.89zM88.25 16.78c1.39 0 2.51.42 3.37 1.26.86.82 1.29 2.02 1.29 3.6v6.66h-1.87v-6.4c0-1.13-.29-1.99-.85-2.58-.57-.6-1.35-.9-2.33-.9-1 0-1.8.3-2.39.92-.58.62-.87 1.52-.87 2.7v6.26h-1.89V16.99h1.89v1.6c.37-.57.88-1.02 1.52-1.34a4.82 4.82 0 012.13-.47zM103.24 20.89a3 3 0 011.44.64c.44.34.78.77 1.03 1.28a3.63 3.63 0 01-.17 3.61 3.9 3.9 0 01-1.63 1.38c-.71.33-1.55.5-2.52.5H96V13.9h5.2c.98 0 1.82.17 2.5.5.7.31 1.22.75 1.57 1.3.34.55.52 1.17.52 1.85 0 .86-.24 1.57-.71 2.13-.46.55-1.07.95-1.83 1.2zm-5.36-.77h3.18c.89 0 1.57-.2 2.06-.62.48-.4.72-.98.72-1.7 0-.74-.24-1.3-.72-1.72-.49-.41-1.19-.62-2.1-.62h-3.14v4.66zm3.35 6.63c.94 0 1.67-.22 2.2-.66.52-.44.79-1.05.79-1.84 0-.8-.28-1.42-.83-1.88-.56-.46-1.3-.7-2.22-.7h-3.29v5.08h3.35zM108.02 22.6c0-1.15.24-2.17.71-3.03a5.1 5.1 0 014.7-2.77c1 0 1.86.21 2.59.64.73.43 1.28.96 1.64 1.61V17h1.91v11.3h-1.9v-2.1a4.5 4.5 0 01-1.7 1.65c-.72.43-1.58.64-2.57.64a5.18 5.18 0 01-4.67-2.82c-.47-.9-.7-1.92-.7-3.06zm9.64.02c0-.85-.17-1.6-.52-2.23a3.57 3.57 0 00-1.41-1.44 3.72 3.72 0 00-1.93-.52c-.7 0-1.35.17-1.93.5a3.6 3.6 0 00-1.4 1.44 4.58 4.58 0 00-.51 2.23c0 .87.17 1.63.52 2.27.34.64.8 1.12 1.39 1.47.58.33 1.22.5 1.93.5a3.7 3.7 0 003.34-1.96c.35-.65.52-1.4.52-2.26zM126.8 28.48c-.88 0-1.66-.14-2.35-.43-.7-.3-1.24-.71-1.64-1.24a3.34 3.34 0 01-.67-1.83h1.95c.06.56.32 1.02.8 1.38a3.1 3.1 0 001.88.54c.72 0 1.3-.16 1.7-.48.42-.32.63-.72.63-1.2 0-.5-.22-.86-.66-1.1a8.94 8.94 0 00-2.06-.71c-.85-.22-1.54-.44-2.08-.66a3.95 3.95 0 01-1.37-1.02 2.7 2.7 0 01-.56-1.77c0-.58.17-1.1.52-1.6.35-.47.84-.85 1.47-1.13a5.23 5.23 0 012.19-.43c1.26 0 2.27.32 3.05.95.77.63 1.19 1.5 1.24 2.6h-1.89a1.93 1.93 0 00-.72-1.42 2.64 2.64 0 00-1.75-.54c-.68 0-1.22.14-1.62.43-.4.3-.6.67-.6 1.14 0 .37.12.68.35.93.25.23.56.42.92.58.37.13.88.3 1.53.47.82.22 1.48.44 2 .66.51.2.95.52 1.3.95.38.43.57.98.59 1.67 0 .62-.17 1.18-.52 1.68s-.84.88-1.48 1.17a5.3 5.3 0 01-2.16.41zM144 22.2c0 .37-.02.75-.06 1.14h-9.1a3.7 3.7 0 001.14 2.63c.7.62 1.56.93 2.56.93.81 0 1.5-.2 2.03-.56.56-.39.94-.9 1.17-1.53h2.03a4.91 4.91 0 01-1.83 2.66 5.58 5.58 0 01-3.4 1.01 5.84 5.84 0 01-2.91-.72 5.17 5.17 0 01-2-2.04 6.4 6.4 0 01-.72-3.1c0-1.17.24-2.2.7-3.07a4.9 4.9 0 011.98-2.03 5.93 5.93 0 012.95-.72c1.08 0 2.03.23 2.86.7a4.79 4.79 0 011.91 1.94c.46.81.69 1.74.69 2.77zm-1.95-.38a3.4 3.4 0 00-.48-1.84 3 3 0 00-1.3-1.18 3.92 3.92 0 00-1.82-.41c-.95 0-1.77.3-2.45.9a3.7 3.7 0 00-1.14 2.53h7.19z" fill="#5C5C5C"/>
  <path d="M47.57 21.1c0-1.41.31-2.67.95-3.78.64-1.13 1.5-2.01 2.6-2.65a7.28 7.28 0 013.67-.95c1.58 0 2.96.38 4.14 1.14a6.51 6.51 0 012.57 3.22h-2.26a4.5 4.5 0 00-1.75-2 4.99 4.99 0 00-2.7-.7 5.3 5.3 0 00-2.72.7 4.9 4.9 0 00-1.89 2 6.3 6.3 0 00-.68 3.01c0 1.15.23 2.15.68 3.02a4.94 4.94 0 001.9 1.98c.8.47 1.7.7 2.71.7a4.5 4.5 0 004.44-2.68h2.27a6.52 6.52 0 01-2.57 3.2 7.58 7.58 0 01-4.14 1.11 6.96 6.96 0 01-6.27-3.55 7.48 7.48 0 01-.95-3.78zM69.28 28.48a5.91 5.91 0 01-2.9-.72 5.27 5.27 0 01-2.04-2.04 6.4 6.4 0 01-.73-3.1c0-1.15.25-2.17.75-3.05.5-.9 1.2-1.58 2.07-2.05a5.95 5.95 0 012.93-.72c1.08 0 2.06.24 2.93.72a5.09 5.09 0 012.06 2.03 6 6 0 01.76 3.07 6 6 0 01-.78 3.1 5.33 5.33 0 01-2.1 2.04c-.89.48-1.87.72-2.95.72zm0-1.65c.68 0 1.31-.16 1.9-.47.6-.32 1.08-.8 1.44-1.43.38-.63.56-1.4.56-2.3 0-.92-.18-1.69-.54-2.32a3.46 3.46 0 00-1.4-1.4 3.9 3.9 0 00-1.9-.48c-.7 0-1.33.16-1.91.48-.57.3-1.02.77-1.37 1.4-.35.63-.52 1.4-.52 2.31 0 .92.17 1.7.5 2.33a3.5 3.5 0 003.24 1.88zM78.58 15.15c-.36 0-.67-.12-.92-.37a1.23 1.23 0 01-.37-.91c0-.36.12-.66.37-.9.25-.26.56-.38.92-.38.34 0 .63.12.87.37.25.25.37.55.37.9 0 .37-.12.67-.37.92-.24.25-.53.37-.87.37zm.9 1.84v11.3H77.6V17h1.89zM88.25 16.78c1.39 0 2.51.42 3.37 1.26.86.82 1.29 2.02 1.29 3.6v6.66h-1.87v-6.4c0-1.13-.29-1.99-.85-2.58-.57-.6-1.35-.9-2.33-.9-1 0-1.8.3-2.39.92-.58.62-.87 1.52-.87 2.7v6.26h-1.89V16.99h1.89v1.6c.37-.57.88-1.02 1.52-1.34a4.82 4.82 0 012.13-.47zM103.24 20.89a3 3 0 011.44.64c.44.34.78.77 1.03 1.28a3.63 3.63 0 01-.17 3.61 3.9 3.9 0 01-1.63 1.38c-.71.33-1.55.5-2.52.5H96V13.9h5.2c.98 0 1.82.17 2.5.5.7.31 1.22.75 1.57 1.3.34.55.52 1.17.52 1.85 0 .86-.24 1.57-.71 2.13-.46.55-1.07.95-1.83 1.2zm-5.36-.77h3.18c.89 0 1.57-.2 2.06-.62.48-.4.72-.98.72-1.7 0-.74-.24-1.3-.72-1.72-.49-.41-1.19-.62-2.1-.62h-3.14v4.66zm3.35 6.63c.94 0 1.67-.22 2.2-.66.52-.44.79-1.05.79-1.84 0-.8-.28-1.42-.83-1.88-.56-.46-1.3-.7-2.22-.7h-3.29v5.08h3.35zM108.02 22.6c0-1.15.24-2.17.71-3.03a5.1 5.1 0 014.7-2.77c1 0 1.86.21 2.59.64.73.43 1.28.96 1.64 1.61V17h1.91v11.3h-1.9v-2.1a4.5 4.5 0 01-1.7 1.65c-.72.43-1.58.64-2.57.64a5.18 5.18 0 01-4.67-2.82c-.47-.9-.7-1.92-.7-3.06zm9.64.02c0-.85-.17-1.6-.52-2.23a3.57 3.57 0 00-1.41-1.44 3.72 3.72 0 00-1.93-.52c-.7 0-1.35.17-1.93.5a3.6 3.6 0 00-1.4 1.44 4.58 4.58 0 00-.51 2.23c0 .87.17 1.63.52 2.27.34.64.8 1.12 1.39 1.47.58.33 1.22.5 1.93.5a3.7 3.7 0 003.34-1.96c.35-.65.52-1.4.52-2.26zM126.8 28.48c-.88 0-1.66-.14-2.35-.43-.7-.3-1.24-.71-1.64-1.24a3.34 3.34 0 01-.67-1.83h1.95c.06.56.32 1.02.8 1.38a3.1 3.1 0 001.88.54c.72 0 1.3-.16 1.7-.48.42-.32.63-.72.63-1.2 0-.5-.22-.86-.66-1.1a8.94 8.94 0 00-2.06-.71c-.85-.22-1.54-.44-2.08-.66a3.95 3.95 0 01-1.37-1.02 2.7 2.7 0 01-.56-1.77c0-.58.17-1.1.52-1.6.35-.47.84-.85 1.47-1.13a5.23 5.23 0 012.19-.43c1.26 0 2.27.32 3.05.95.77.63 1.19 1.5 1.24 2.6h-1.89a1.93 1.93 0 00-.72-1.42 2.64 2.64 0 00-1.75-.54c-.68 0-1.22.14-1.62.43-.4.3-.6.67-.6 1.14 0 .37.12.68.35.93.25.23.56.42.92.58.37.13.88.3 1.53.47.82.22 1.48.44 2 .66.51.2.95.52 1.3.95.38.43.57.98.59 1.67 0 .62-.17 1.18-.52 1.68s-.84.88-1.48 1.17a5.3 5.3 0 01-2.16.41zM144 22.2c0 .37-.02.75-.06 1.14h-9.1a3.7 3.7 0 001.14 2.63c.7.62 1.56.93 2.56.93.81 0 1.5-.2 2.03-.56.56-.39.94-.9 1.17-1.53h2.03a4.91 4.91 0 01-1.83 2.66 5.58 5.58 0 01-3.4 1.01 5.84 5.84 0 01-2.91-.72 5.17 5.17 0 01-2-2.04 6.4 6.4 0 01-.72-3.1c0-1.17.24-2.2.7-3.07a4.9 4.9 0 011.98-2.03 5.93 5.93 0 012.95-.72c1.08 0 2.03.23 2.86.7a4.79 4.79 0 011.91 1.94c.46.81.69 1.74.69 2.77zm-1.95-.38a3.4 3.4 0 00-.48-1.84 3 3 0 00-1.3-1.18 3.92 3.92 0 00-1.82-.41c-.95 0-1.77.3-2.45.9a3.7 3.7 0 00-1.14 2.53h7.19z" stroke="#5C5C5C" mask="url(#a)"/>
  <path d="M26.25 30.6h9.27c2 0 3.57-1.8 3.57-3.91 0-2.1-1.57-3.92-3.57-3.92h-2.14C36.24 16.3 34.81 2 21.98 2 13.4 2 9.12 7.26 9.12 17.95H7.71C4.57 17.95 2 20.82 2 24.28s2.57 6.32 5.7 6.32h18.55z" stroke="url(#paint0_linear)" stroke-width="3" stroke-linecap="round" stroke-linejoin="round"/>
  <path d="M21.85 15.94l-2.23.74-1.08-3.24 2.19-.74c.45-.14.92-.11 1.33.09h0a1.67 1.67 0 01.77 2.29h0c-.2.4-.55.7-.98.86zm-5.12-1.9l.32-.1 2.84 8.47-.33.11a.78.78 0 00-.5.99c.14.41.6.62 1 .49l1.91-.65.1.32c.15.41.6.62 1 .48.4-.13.63-.56.49-.98l-.1-.31.13-.04.1.3c.14.42.59.63.99.5.4-.14.63-.57.5-.99l-.11-.32a3.53 3.53 0 00-.73-6.78 3.27 3.27 0 00-3.03-4.48l-.16-.47h0a.78.78 0 00-1-.49.78.78 0 00-.49.99l.1.3-.12.05-.1-.31s0 0 0 0a.78.78 0 00-1-.49.78.78 0 00-.49.98l.1.32-.28.1h0l-.47.15-1.16.39a.78.78 0 00-.5.98c.14.42.59.62.99.5zm8.81 5.87h0c-.24.48-.66.84-1.18 1l-3 1-1.25-3.76 2.2-.73.04-.02.75-.25a2.04 2.04 0 011.55.1h0a1.95 1.95 0 01.9 2.66z" fill="url(#paint1_linear)" stroke="url(#paint2_linear)"/>
  <defs>
    <linearGradient id="paint0_linear" x1="22.4" y1="-2.51" x2="23.65" y2="48.19" gradientUnits="userSpaceOnUse">
      <stop stop-color="#FD749B"/>
      <stop offset="1" stop-color="#281AC8"/>
    </linearGradient>
    <linearGradient id="paint1_linear" x1="19.52" y1="8.63" x2="28.06" y2="30.51" gradientUnits="userSpaceOnUse">
      <stop stop-color="#FD749B"/>
      <stop offset="1" stop-color="#281AC8"/>
    </linearGradient>
    <linearGradient id="paint2_linear" x1="19.52" y1="8.63" x2="28.06" y2="30.51" gradientUnits="userSpaceOnUse">
      <stop stop-color="#FD749B"/>
      <stop offset="1" stop-color="#281AC8"/>
    </linearGradient>
  </defs>
</svg>
