<svg xmlns="http://www.w3.org/2000/svg" width="24" height="25">
  <path d="M16.5 13.5c0 .83-.56 1.5-1.25 1.5S14 14.33 14 13.5s.56-1.5 1.25-1.5 1.25.67 1.25 1.5zM8.75 12c-.69 0-1.25.67-1.25 1.5S8.06 15 8.75 15 10 14.33 10 13.5 9.44 12 8.75 12zM24 14.31c0 1.77-.98 4-3.14 4.9C18.8 22.52 15.87 25 12 25c-3.74 0-6.85-2.56-8.86-5.78A5.39 5.39 0 010 14.32c0-2.06.75-3.03 1.42-3.5-.4-1.52-1.03-5.14.96-7.4A4.45 4.45 0 016.5 2.14C7.22.61 10.11 0 12 0c3 0 6.6.64 9.14 3.52 1.97 2.23 1.65 5.74 1.39 7.27.67.44 1.47 1.41 1.47 3.52zM14.4 19H9.6s.68 1.88 2.4 1.88c1.79 0 2.4-1.88 2.4-1.88zm7.06-6.5c-4.1.39-7.77-3.07-9.07-5.28-.08.8.19 2.56.97 3.35A8.95 8.95 0 015.9 6.71a9.36 9.36 0 00-1.24 4.77 1 1 0 01-1.4.91.75.75 0 00-.68.06c-1 .65-.9 4.18 1.55 5a1 1 0 01.54.44 14.52 14.52 0 002.09 2.72c.92.63 1.05-1.87 1.66-2.72.69-.95 2.46-1.12 3.58-.32 1.12-.8 2.9-.63 3.58.32.6.85.74 3.36 1.66 2.72.74-.74 1.44-1.63 2.1-2.72a1 1 0 01.53-.43c2.36-.8 2.6-4.19 1.6-4.97z"/>
</svg>
