<svg width="13" height="12" viewBox="0 0 13 12" fill="none" xmlns="http://www.w3.org/2000/svg">
<path d="M6.01199 10.9408L3.81199 11.8408C3.31199 12.0408 2.71199 11.8408 2.51199 11.3408C2.41199 11.1408 2.41199 11.0408 2.41199 10.8408L2.61199 8.44082C2.61199 8.14082 2.51199 7.94082 2.41199 7.74082L0.811988 5.94082C0.511988 5.54082 0.511988 4.84082 0.911988 4.54082C1.11199 4.44082 1.21199 4.34082 1.41199 4.34082L3.71199 3.84082C4.01199 3.74082 4.21199 3.64082 4.31199 3.34082L5.51199 1.34082C5.81199 0.84082 6.41199 0.74082 6.91199 1.04082C7.01199 1.14082 7.21199 1.24082 7.21199 1.34082L8.41199 3.34082C8.51199 3.54082 8.81199 3.74082 9.01199 3.84082L11.412 4.34082C11.912 4.44082 12.312 5.04082 12.112 5.54082C12.112 5.74082 12.012 5.84082 11.912 5.94082L10.412 7.74082C10.212 7.94082 10.112 8.24082 10.212 8.44082L10.412 10.8408C10.412 11.4408 10.012 11.8408 9.51199 11.9408C9.31199 11.9408 9.21199 11.9408 9.01199 11.8408L6.81199 10.9408C6.51199 10.8408 6.31199 10.8408 6.01199 10.9408Z" fill="url(#paint0_linear)"/>
<defs>
<linearGradient id="paint0_linear" x1="6.95969" y1="-0.870233" x2="7.55735" y2="18.7395" gradientUnits="userSpaceOnUse">
<stop stop-color="#FD749B"/>
<stop offset="1" stop-color="#281AC8"/>
</linearGradient>
</defs>
</svg>
