<svg width="78" height="12" fill="none" xmlns="http://www.w3.org/2000/svg">
  <path d="M5.75 10.94l-2.2.9c-.5.2-1.1 0-1.3-.5-.1-.2-.1-.3-.1-.5l.2-2.4c0-.3-.1-.5-.2-.7l-1.6-1.8c-.3-.4-.3-1.1.1-1.4.2-.1.3-.2.5-.2l2.3-.5c.3-.1.5-.2.6-.5l1.2-2c.3-.5.9-.6 1.4-.3.1.1.3.2.3.3l1.2 2c.1.2.4.4.6.5l2.4.5c.5.1.9.7.7 1.2 0 .2-.1.3-.2.4l-1.5 1.8c-.2.2-.3.5-.2.7l.2 2.4c0 .6-.4 1-.9 1.1-.2 0-.3 0-.5-.1l-2.2-.9c-.3-.1-.5-.1-.8 0z" fill="url(#paint0_linear)"/>
  <path d="M22.06 10.94l-2.2.9c-.5.2-1.1 0-1.3-.5-.1-.2-.1-.3-.1-.5l.2-2.4c0-.3-.1-.5-.2-.7l-1.6-1.8c-.3-.4-.3-1.1.1-1.4.2-.1.3-.2.5-.2l2.3-.5c.3-.1.5-.2.6-.5l1.2-2c.3-.5.9-.6 1.4-.3.1.1.3.2.3.3l1.2 2c.1.2.4.4.6.5l2.4.5c.5.1.9.7.7 1.2 0 .2-.1.3-.2.4l-1.5 1.8c-.2.2-.3.5-.2.7l.2 2.4c0 .6-.4 1-.9 1.1-.2 0-.3 0-.5-.1l-2.2-.9c-.3-.1-.5-.1-.8 0z" fill="url(#paint1_linear)"/>
  <path d="M38.38 10.94l-2.2.9c-.5.2-1.1 0-1.3-.5-.1-.2-.1-.3-.1-.5l.2-2.4c0-.3-.1-.5-.2-.7l-1.6-1.8c-.3-.4-.3-1.1.1-1.4.2-.1.3-.2.5-.2l2.3-.5c.3-.1.5-.2.6-.5l1.2-2c.3-.5.9-.6 1.4-.3.1.1.3.2.3.3l1.2 2c.1.2.4.4.6.5l2.4.5c.5.1.9.7.7 1.2 0 .2-.1.3-.2.4l-1.5 1.8c-.2.2-.3.5-.2.7l.2 2.4c0 .6-.4 1-.9 1.1-.2 0-.3 0-.5-.1l-2.2-.9c-.3-.1-.5-.1-.8 0z" fill="url(#paint2_linear)"/>
  <path d="M54.7 10.94l-2.2.9c-.5.2-1.1 0-1.3-.5-.1-.2-.1-.3-.1-.5l.2-2.4c0-.3-.1-.5-.2-.7l-1.6-1.8c-.3-.4-.3-1.1.1-1.4.2-.1.3-.2.5-.2l2.3-.5c.3-.1.5-.2.6-.5l1.2-2c.3-.5.9-.6 1.4-.3.1.1.3.2.3.3l1.2 2c.1.2.4.4.6.5l2.4.5c.5.1.9.7.7 1.2 0 .2-.1.3-.2.4l-1.5 1.8c-.2.2-.3.5-.2.7l.2 2.4c0 .6-.4 1-.9 1.1-.2 0-.3 0-.5-.1l-2.2-.9c-.3-.1-.5-.1-.8 0z" fill="url(#paint3_linear)"/>
  <path d="M71.01 10.94l-2.2.9c-.5.2-1.1 0-1.3-.5-.1-.2-.1-.3-.1-.5l.2-2.4c0-.3-.1-.5-.2-.7l-1.6-1.8c-.3-.4-.3-1.1.1-1.4.2-.1.3-.2.5-.2l2.3-.5c.3-.1.5-.2.6-.5l1.2-2c.3-.5.9-.6 1.4-.3.1.1.3.2.3.3l1.2 2c.1.2.4.4.6.5l2.4.5c.5.1.9.7.7 1.2 0 .2-.1.3-.2.4l-1.5 1.8c-.2.2-.3.5-.2.7l.2 2.4c0 .6-.4 1-.9 1.1-.2 0-.3 0-.5-.1l-2.2-.9c-.3-.1-.5-.1-.8 0z" fill="url(#paint4_linear)"/>
  <defs>
    <linearGradient id="paint0_linear" x1="6.69" y1="-.87" x2="7.29" y2="18.74" gradientUnits="userSpaceOnUse">
      <stop stop-color="#FD749B"/>
      <stop offset="1" stop-color="#281AC8"/>
    </linearGradient>
    <linearGradient id="paint1_linear" x1="23.01" y1="-.87" x2="23.61" y2="18.74" gradientUnits="userSpaceOnUse">
      <stop stop-color="#FD749B"/>
      <stop offset="1" stop-color="#281AC8"/>
    </linearGradient>
    <linearGradient id="paint2_linear" x1="39.33" y1="-.87" x2="39.92" y2="18.74" gradientUnits="userSpaceOnUse">
      <stop stop-color="#FD749B"/>
      <stop offset="1" stop-color="#281AC8"/>
    </linearGradient>
    <linearGradient id="paint3_linear" x1="55.64" y1="-.87" x2="56.24" y2="18.74" gradientUnits="userSpaceOnUse">
      <stop stop-color="#FD749B"/>
      <stop offset="1" stop-color="#281AC8"/>
    </linearGradient>
    <linearGradient id="paint4_linear" x1="71.96" y1="-.87" x2="72.56" y2="18.74" gradientUnits="userSpaceOnUse">
      <stop stop-color="#FD749B"/>
      <stop offset="1" stop-color="#281AC8"/>
    </linearGradient>
  </defs>
</svg>
