<svg width="15" height="6" fill="none" xmlns="http://www.w3.org/2000/svg">
  <path d="M.26 3.84h11.02v1.54c0 .07.02.13.07.18.06.05.12.08.18.08.08 0 .14-.02.19-.07L14.28 3a.25.25 0 00.07-.18.25.25 0 00-.07-.18L11.73.08a.3.3 0 00-.2-.08.25.25 0 00-.18.07.25.25 0 00-.07.19v1.53H.26a.25.25 0 00-.18.08.25.25 0 00-.08.18V3.6c0 .07.03.13.08.18.05.05.1.07.18.07z" fill="url(#paint0_linear)"/>
  <defs>
    <linearGradient id="paint0_linear" x1="7.89" y1="-.89" x2="8.02" y2="9.11" gradientUnits="userSpaceOnUse">
      <stop stop-color="#FD749B"/>
      <stop offset="1" stop-color="#281AC8"/>
    </linearGradient>
  </defs>
</svg>
