<svg width="13" height="11" fill="none" xmlns="http://www.w3.org/2000/svg">
  <path opacity=".8" fill-rule="evenodd" clip-rule="evenodd" d="M12.64.2a5.2 5.2 0 01-1.7.68A2.61 2.61 0 009 0a2.72 2.72 0 00-2.67 2.78c0 .21.03.43.07.63A7.47 7.47 0 01.9.5a2.86 2.86 0 00.83 3.7 2.59 2.59 0 01-1.2-.34v.03c0 1.35.91 2.47 2.13 2.73a2.5 2.5 0 01-1.2.04A2.68 2.68 0 003.95 8.6 5.22 5.22 0 010 9.75 7.34 7.34 0 004.09 11c4.9 0 7.59-4.23 7.59-7.9l-.01-.36c.52-.4.97-.88 1.33-1.44-.48.22-1 .37-1.53.44.55-.34.97-.89 1.17-1.54z" fill="#fff"/>
</svg>
