<svg xmlns="http://www.w3.org/2000/svg" width="24" height="26">
  <path d="M16.5 14.5c0 .82-.56 1.5-1.25 1.5S14 15.31 14 14.5s.56-1.5 1.25-1.5 1.25.66 1.25 1.5zM8.75 13c-.69 0-1.25.66-1.25 1.5S8.06 16 8.75 16 10 15.31 10 14.5 9.44 13 8.75 13zM12 21.34c2.23 0 3-2.36 3-2.36H9s.85 2.36 3 2.36zm12-6.05c0 1.77-.98 4-3.14 4.91C18.51 23.94 15.38 26 12 26c-3.38 0-6.51-2.05-8.86-5.78A5.39 5.39 0 010 15.31c0-1.48.39-2.94 1.68-3.64-.38-2.31-.12-6.18 4.2-7.6C6.9 2.1 9 0 12 0s5.1 2.1 6.13 4.09c4.3 1.41 4.57 5.28 4.19 7.59 1.3.7 1.68 2.16 1.68 3.64zm-2.18-1.25c-4.68-.26-6.83-4.66-7.24-7.4-1.16 6.34-9 1.8-9.9 9.06a5.96 5.96 0 01-2.2-2.16c-1 1-.55 4.16 1.65 4.9a1 1 0 01.54.43C6.66 22.18 9.27 24 12 24s5.34-1.81 7.33-5.1a1 1 0 01.54-.44c1.77-.6 2.51-2.77 1.95-4.4z"/>
</svg>
